<?xml version="1.0" encoding="UTF-8"?><svg id="Layer_1" xmlns="http://www.w3.org/2000/svg" viewBox="0 0 1500 1500"><path d="M300.71,870.06v-17.45c0-2.26.32-3.56,1.29-5.5l86.62-178.73c6.79-14.22.65-24.56-15.19-24.56h-68.2c-2.91,0-4.52-1.62-4.52-4.52v-12.28c0-2.91,1.62-4.53,4.52-4.53h125.73c2.91,0,4.52,1.62,4.52,4.53v21.65c0,2.26-.32,3.56-1.29,5.5l-85,174.53c-7.11,14.22-.65,24.56,15.19,24.56h70.78c2.91,0,4.52,1.62,4.52,4.53v12.28c0,2.91-1.62,4.52-4.52,4.52h-129.93c-2.91,0-4.52-1.62-4.52-4.52Z"/><path d="M701.84,870.7l-19.39-62.06c-.65-1.94-.97-3.23-.97-5.49v-176.15c0-2.91,1.62-4.53,4.53-4.53h24.56c2.91,0,4.52,1.62,4.52,4.53v182.61c0,4.2,1.62,6.46,5.5,6.46,3.23,0,4.85-1.94,5.82-6.14l10.67-48.81c.65-2.91,2.59-3.88,5.17-3.88h16.48c2.59,0,4.52.97,5.17,3.88l9.7,48.81c.65,3.88,2.59,6.14,5.82,6.14,3.88,0,5.49-2.26,5.49-6.46v-182.61c0-2.91,1.62-4.53,4.53-4.53h24.56c2.91,0,4.52,1.62,4.52,4.53v176.15c0,2.26-.32,3.56-.97,5.49l-19.39,62.06c-.65,2.59-2.59,3.88-5.17,3.88h-21.01c-2.59,0-4.53-.97-5.17-3.88l-9.7-41.69c-2.26-9.37-12.28-10.02-14.54,0l-9.37,41.69c-.65,2.91-2.59,3.88-5.17,3.88h-21.01c-2.59,0-4.52-1.29-5.17-3.88Z"/><path d="M1058.96,870.06v-243.05c0-2.91,1.62-4.53,4.52-4.53h94.38c2.26,0,4.2.97,5.49,2.91l32,43.63c1.29,1.62,1.94,3.56,1.94,5.82v37.81c0,2.26-.65,3.56-2.26,5.49l-26.5,28.77c-7.76,8.4-9.37,17.45-5.17,28.12l36.85,94.38c1.29,2.91-.32,5.17-3.56,5.17h-27.47c-2.59,0-4.2-1.29-5.17-3.56l-37.17-95.67c-4.2-10.99-8.73-16.16-17.45-16.16-10.02,0-15.84,7.43-15.84,20.69v90.17c0,2.91-1.62,4.52-4.52,4.52h-25.53c-2.91,0-4.52-1.62-4.52-4.52ZM1154.3,723.65l.65-.97c4.85-8.73,6.79-16.16,6.79-25.86v-11.96c0-9.7-1.94-16.81-6.46-25.53l-.97-1.94c-5.17-9.7-12.93-13.58-24.24-13.58h-15.84c-13.25,0-20.69,7.43-20.69,20.69v52.68c0,13.25,7.43,20.69,20.69,20.69h15.19c11.31,0,19.07-4.2,24.89-14.22Z"/><path d="M440.44,1036.27h-140.48c-10.54,0-20.45-5.16-26.49-13.8l-103.5-148.01c-3.82-5.46-5.83-11.86-5.83-18.52v-214.8c0-6.66,2.02-13.07,5.83-18.52l103.5-148.01c6.04-8.64,15.94-13.8,26.49-13.8h140.48c10.54,0,20.45,5.16,26.49,13.8l103.5,148.01c3.82,5.46,5.83,11.86,5.83,18.52v214.8c0,6.66-2.02,13.07-5.83,18.52l-103.5,148.01c-6.04,8.64-15.94,13.8-26.49,13.8ZM299.96,493.12l-103.5,148.01v214.8s103.5,148.01,103.5,148.01h140.48l103.5-148.01v-214.8s-103.5-148.01-103.5-148.01h-140.48Z"/><path d="M820.24,1036.27h-140.48c-10.54,0-20.45-5.16-26.49-13.8l-103.5-148.01c-3.82-5.46-5.83-11.86-5.83-18.52v-214.8c0-6.66,2.02-13.07,5.83-18.52l103.5-148.01c6.04-8.64,15.94-13.8,26.49-13.8h140.48c10.54,0,20.45,5.16,26.49,13.8l103.5,148.01c3.82,5.46,5.83,11.86,5.83,18.52v214.8c0,6.66-2.02,13.07-5.83,18.52l-103.5,148.01c-6.04,8.64-15.94,13.8-26.49,13.8ZM679.76,493.12l-103.5,148.01v214.8s103.5,148.01,103.5,148.01h140.48l103.5-148.01v-214.8s-103.5-148.01-103.5-148.01h0-140.48Z"/><path d="M1200.04,1036.27h-140.48c-10.54,0-20.45-5.16-26.49-13.8l-103.5-148.01c-3.82-5.46-5.83-11.86-5.83-18.52v-214.8c0-6.66,2.02-13.07,5.83-18.52l103.5-148.01c6.04-8.64,15.94-13.8,26.49-13.8h140.48c10.54,0,20.45,5.16,26.49,13.8l103.5,148.01c3.82,5.46,5.83,11.86,5.83,18.52v214.8c0,6.66-2.02,13.07-5.83,18.52l-103.5,148.01c-6.04,8.64-15.94,13.8-26.49,13.8ZM1059.56,493.12l-103.5,148.01v214.8l103.5,148.01h140.48l103.5-148.01v-214.8s-103.5-148.01-103.5-148.01h-140.48Z"/></svg>